Coordinates
version=1
nRows=11
nColumns=63
inDegrees=yes

Units are S.I. units (second, meters, Newtons, ...)
If the header above contains a line with 'inDegrees', this indicates whether rotational values are in degrees (yes) or radians (no).

endheader
time	pelvis_tilt	pelvis_list	pelvis_rotation	pelvis_tx	pelvis_ty	pelvis_tz	hip_flexion_r	hip_adduction_r	hip_rotation_r	knee_angle_r	knee_angle_r_beta	ankle_angle_r	subtalar_angle_r	mtp_angle_r	hip_flexion_l	hip_adduction_l	hip_rotation_l	knee_angle_l	knee_angle_l_beta	ankle_angle_l	subtalar_angle_l	mtp_angle_l	L5_S1_Flex_Ext	L5_S1_Lat_Bending	L5_S1_axial_rotation	L4_L5_Flex_Ext	L4_L5_Lat_Bending	L4_L5_axial_rotation	L3_L4_Flex_Ext	L3_L4_Lat_Bending	L3_L4_axial_rotation	L2_L3_Flex_Ext	L2_L3_Lat_Bending	L2_L3_axial_rotation	L1_L2_Flex_Ext	L1_L2_Lat_Bending	L1_L2_axial_rotation	L1_T12_Flex_Ext	L1_T12_Lat_Bending	L1_T12_axial_rotation	Abs_r3	Abs_r2	Abs_r1	Abs_t1	Abs_t2	neck_flexion	neck_bending	neck_rotation	arm_flex_r	arm_add_r	arm_rot_r	elbow_flex_r	pro_sup_r	wrist_flex_r	wrist_dev_r	arm_flex_l	arm_add_l	arm_rot_l	elbow_flex_l	pro_sup_l	wrist_flex_l	wrist_dev_l
1.627119	-1.399049	-14.293759	94.890071	0.223731	1.010303	0.500125	20.361734	-2.616374	-2.756515	18.789776	0.327943	20.864953	-6.641243	0.000000	17.489467	2.104912	-8.775059	11.006884	0.192106	22.373100	2.346303	0.000000	-0.027134	-0.229290	-0.000541	-0.050391	-0.304956	-0.000575	-0.044578	-0.557495	-0.000575	-0.031011	-0.557495	-0.000473	-0.025197	-0.467568	-0.000440	-0.015504	-0.355170	-0.000406	-0.193815	-2.593773	-0.003010	0.000000	0.000000	20.693274	-0.843930	-2.011859	52.073671	-10.591296	26.380992	66.831210	40.154464	-3.604171	15.582391	50.565344	-7.084692	30.710354	73.791011	42.017424	-3.155564	8.235929
1.644068	-1.456696	-14.429326	94.925278	0.223634	1.011024	0.500498	20.221971	-2.805774	-3.521779	18.252247	0.318562	20.802462	-5.728773	0.000000	17.347223	2.270596	-8.826510	10.221873	0.178405	22.210441	2.601600	0.000000	-0.021196	-0.229610	-0.014099	-0.039363	-0.305382	-0.014980	-0.034823	-0.558275	-0.014980	-0.024225	-0.558275	-0.012336	-0.019683	-0.468222	-0.011455	-0.012112	-0.355667	-0.010574	-0.151402	-2.597399	-0.078413	0.000000	0.000000	20.811316	-0.908964	-1.745617	57.277545	-11.248984	28.939123	61.388141	32.822777	-3.266993	14.401695	55.156232	-7.291567	31.394347	68.927698	41.040160	-7.402119	5.753251
1.661017	-1.512393	-14.606016	95.002765	0.223548	1.011641	0.500853	20.093213	-3.007383	-4.370568	17.695885	0.308851	20.743196	-4.679102	0.000000	17.275451	2.440011	-8.870014	9.491271	0.165654	22.053709	2.878757	0.000000	-0.014229	-0.230163	-0.050523	-0.026424	-0.306117	-0.053681	-0.023376	-0.559619	-0.053681	-0.016262	-0.559619	-0.044208	-0.013213	-0.469349	-0.041050	-0.008130	-0.356523	-0.037892	-0.101634	-2.603653	-0.280994	0.000000	0.000000	20.984833	-0.858539	-1.406278	62.536458	-11.967734	32.106485	55.642984	26.860236	-3.029214	13.148738	60.118122	-7.730308	33.305286	63.651977	41.608494	-10.288622	3.705784
1.677966	-1.564262	-14.818766	95.122813	0.223501	1.012140	0.501205	19.978995	-3.216827	-5.292587	17.132463	0.299018	20.675902	-3.502174	0.000000	17.277276	2.604916	-8.890663	8.833185	0.154168	21.904110	3.169321	0.000000	-0.006847	-0.231111	-0.111322	-0.012716	-0.307378	-0.118280	-0.011250	-0.561923	-0.118280	-0.007826	-0.561923	-0.097407	-0.006358	-0.471282	-0.090449	-0.003913	-0.357991	-0.083492	-0.048910	-2.614375	-0.619140	0.000000	0.000000	21.234621	-0.686035	-0.987257	67.814400	-12.794319	35.940193	49.824129	22.566422	-2.880455	11.873314	65.345355	-8.486292	36.359270	58.211186	43.702624	-11.988294	2.235230
1.694915	-1.635847	-15.076995	95.220883	0.223601	1.012500	0.501509	19.902056	-3.431997	-6.207958	16.573998	0.289271	20.590471	-2.233282	0.000000	17.345804	2.774887	-8.891178	8.229728	0.143636	21.738782	3.390633	0.000000	0.003162	-0.236526	-0.182850	0.005873	-0.314580	-0.194278	0.005196	-0.575090	-0.194278	0.003614	-0.575090	-0.159994	0.002937	-0.482325	-0.148566	0.001807	-0.366379	-0.137138	0.022589	-2.675634	-1.016958	0.000000	0.000000	21.561057	-0.403440	-0.557105	72.887437	-13.770378	40.050792	44.287622	20.579991	-2.715117	10.905291	70.659734	-9.541919	40.081706	52.792525	47.377539	-12.376910	1.450056
1.711864	-1.730694	-15.377041	95.279554	0.223879	1.012725	0.501731	19.865493	-3.646747	-7.067085	16.027212	0.279728	20.483835	-0.934712	0.000000	17.473371	2.940137	-8.966690	7.687538	0.134173	21.578439	3.666755	0.000000	0.016044	-0.247863	-0.268222	0.029795	-0.329658	-0.284986	0.026358	-0.602655	-0.284986	0.018336	-0.602655	-0.234694	0.014898	-0.505443	-0.217930	0.009167	-0.383940	-0.201167	0.114599	-2.803879	-1.491770	0.000000	0.000000	21.955779	0.011297	-0.112925	77.605844	-15.005525	44.448976	39.298014	20.580230	-2.424301	10.303672	75.853547	-10.956747	43.979933	47.658387	52.680829	-11.906282	1.412393
1.728814	-1.848564	-15.706602	95.277126	0.224338	1.012871	0.501809	19.855403	-3.856200	-7.856550	15.486423	0.270289	20.348840	0.375203	0.000000	17.631173	3.092520	-9.143107	7.191440	0.125514	21.409848	4.024780	0.000000	0.031749	-0.266314	-0.355616	0.058961	-0.354198	-0.377841	0.052160	-0.647516	-0.377841	0.036286	-0.647516	-0.311164	0.029482	-0.543067	-0.288938	0.018141	-0.412520	-0.266712	0.226778	-3.012597	-1.977827	0.000000	0.000000	22.369206	0.550955	0.233893	81.646943	-16.648752	48.811640	35.186957	20.835885	-2.007244	10.220091	80.660082	-12.817916	47.811266	42.994661	59.663268	-12.087794	1.272435
1.745763	-1.956651	-16.052338	95.208179	0.224920	1.012987	0.501665	19.846049	-4.023383	-8.556044	14.927036	0.260526	20.161787	1.631014	0.000000	17.790672	3.202924	-9.415616	6.726479	0.117399	21.218271	4.453206	0.000000	0.050240	-0.287945	-0.443226	0.093300	-0.382967	-0.470927	0.082539	-0.700109	-0.470927	0.057419	-0.700109	-0.387823	0.046653	-0.587177	-0.360121	0.028707	-0.446027	-0.332419	0.358857	-3.257291	-2.465089	0.000000	0.000000	22.762306	1.209992	0.470452	84.740475	-18.672265	52.580365	32.213245	20.988228	-1.604285	10.913992	84.875672	-14.947786	51.099162	38.871919	68.488789	-12.598839	0.988429
1.762712	-2.090753	-16.401613	95.069474	0.225668	1.013074	0.501338	19.848140	-4.183109	-9.150314	14.396368	0.251264	19.937415	2.802197	0.000000	17.949151	3.300148	-9.805560	6.324844	0.110389	21.002023	4.951598	0.000000	0.069964	-0.318799	-0.527289	0.129930	-0.424003	-0.560245	0.114943	-0.775129	-0.560245	0.079962	-0.775129	-0.461378	0.064968	-0.650095	-0.428422	0.039977	-0.493820	-0.395467	0.499744	-3.606321	-2.932624	0.000000	0.000000	23.094178	1.998908	0.501134	86.761972	-20.995447	55.348332	30.414023	20.928012	-1.420864	11.938331	88.523661	-17.510542	53.689186	35.348514	80.429900	-14.450369	1.283032
1.779661	-2.253512	-16.723001	94.858536	0.226611	1.013171	0.500843	19.834487	-4.330733	-9.619556	13.897135	0.242551	19.668359	3.843449	0.000000	18.070151	3.385228	-10.309083	5.978171	0.104339	20.755664	5.506710	0.000000	0.087393	-0.359309	-0.600906	0.162298	-0.477881	-0.638463	0.143578	-0.873624	-0.638463	0.099882	-0.873624	-0.525793	0.081153	-0.732703	-0.488237	0.049936	-0.556570	-0.450680	0.624241	-4.064576	-3.342062	0.000000	0.000000	23.333374	2.887528	0.279849	87.740062	-23.434414	56.587661	29.660544	20.895734	-1.340895	13.244277	91.518345	-20.513458	55.949199	32.845823	88.152072	-16.306534	1.592100
1.796610	-2.408732	-16.991495	94.594129	0.227625	1.013309	0.500220	19.783428	-4.437444	-9.965415	13.427880	0.234361	19.335029	4.737349	0.000000	18.135763	3.433558	-10.890446	5.688347	0.099280	20.503309	6.092058	0.000000	0.100348	-0.402538	-0.662336	0.186356	-0.535375	-0.703732	0.164862	-0.978730	-0.703732	0.114688	-0.978730	-0.579544	0.093183	-0.820855	-0.538148	0.057339	-0.623531	-0.496752	0.716776	-4.553587	-3.683714	0.000000	0.000000	23.460048	3.805135	-0.138128	87.925176	-25.798957	55.908447	29.656961	20.935603	-1.422194	14.591913	93.629248	-23.853137	57.480441	31.457666	91.851016	-17.651919	1.934906
